name C:\Users\u0150099\Documents\master_thesis\3dpredictsim\Results\CP\CP3_T0_scaled_MRI_v7_scaledMT_right_MTPp_k25_d03_ig21_v4.mot
datacolumns 126
datarows 4
range 1.60414999 1.63623299
endheader
time	pelvis_tilt	pelvis_list	pelvis_rotation	pelvis_tx	pelvis_ty	pelvis_tz	hip_flexion_l	hip_adduction_l	hip_rotation_l	hip_flexion_r	hip_adduction_r	hip_rotation_r	knee_angle_l	knee_angle_r	ankle_angle_l	ankle_angle_r	subtalar_angle_l	subtalar_angle_r	mtj_angle_l	mtj_angle_r	mtp_angle_l	mtp_angle_r	lumbar_extension	lumbar_bending	lumbar_rotation	arm_flex_l	arm_add_l	arm_rot_l	arm_flex_r	arm_add_r	arm_rot_r	elbow_flex_l	elbow_flex_r	glut_med1_l/activation	glut_med2_l/activation	glut_med3_l/activation	glut_min1_l/activation	glut_min2_l/activation	glut_min3_l/activation	semimem_l/activation	semiten_l/activation	bifemlh_l/activation	bifemsh_l/activation	sar_l/activation	add_long_l/activation	add_brev_l/activation	add_mag1_l/activation	add_mag2_l/activation	add_mag3_l/activation	tfl_l/activation	pect_l/activation	grac_l/activation	glut_max1_l/activation	glut_max2_l/activation	glut_max3_l/activation	iliacus_l/activation	psoas_l/activation	quad_fem_l/activation	gem_l/activation	peri_l/activation	rect_fem_l/activation	vas_med_l/activation	vas_int_l/activation	vas_lat_l/activation	med_gas_l/activation	lat_gas_l/activation	soleus_l/activation	tib_post_l/activation	flex_dig_l/activation	flex_hal_l/activation	tib_ant_l/activation	per_brev_l/activation	per_long_l/activation	per_tert_l/activation	ext_dig_l/activation	ext_hal_l/activation	ercspn_l/activation	intobl_l/activation	extobl_l/activation	glut_med1_r/activation	glut_med2_r/activation	glut_med3_r/activation	glut_min1_r/activation	glut_min2_r/activation	glut_min3_r/activation	semimem_r/activation	semiten_r/activation	bifemlh_r/activation	bifemsh_r/activation	sar_r/activation	add_long_r/activation	add_brev_r/activation	add_mag1_r/activation	add_mag2_r/activation	add_mag3_r/activation	tfl_r/activation	pect_r/activation	grac_r/activation	glut_max1_r/activation	glut_max2_r/activation	glut_max3_r/activation	iliacus_r/activation	psoas_r/activation	quad_fem_r/activation	gem_r/activation	peri_r/activation	rect_fem_r/activation	vas_med_r/activation	vas_int_r/activation	vas_lat_r/activation	med_gas_r/activation	lat_gas_r/activation	soleus_r/activation	tib_post_r/activation	flex_dig_r/activation	flex_hal_r/activation	tib_ant_r/activation	per_brev_r/activation	per_long_r/activation	per_tert_r/activation	ext_dig_r/activation	ext_hal_r/activation	ercspn_r/activation	intobl_r/activation	extobl_r/activation	
          1.60414999	         -2.88495368	          1.00820091	         -7.95914142	          2.13351949	          0.83464202	          0.00259186	         29.49063758	         -1.25706572	         -6.18072604	         -8.29174356	         -5.29022854	         -9.96091988	        -12.49800316	        -32.88871840	         15.00322818	          1.53073528	          3.10314556	         11.63797595	          0.31545464	         22.18753040	         -9.54201987	          1.63944679	          1.20710736	        -16.48765751	        -16.27104819	         17.97560817	         15.48254100	        -13.48482281	         18.86195693	         35.44999687	         50.63930710	         86.51662706	         86.51662706	          0.20753714	          0.05891161	          0.05000106	          0.05893163	          0.05891027	          0.05000167	          0.25616504	          0.15619683	          0.18462879	          0.13398231	          0.08178305	          0.07525167	          0.05000635	          0.05001070	          0.05000668	          0.29990578	          0.06996081	          0.05002911	          0.11351320	          0.05000268	          0.05000059	          0.17165501	          0.08178496	          0.08178388	          0.05000051	          0.05000195	          0.05000313	          0.06941324	          0.05000316	          0.05000388	          0.05000485	          0.05001133	          0.05000361	          0.05000030	          0.06309062	          0.05862681	          0.05926162	          0.48136922	          0.12727847	          0.11349593	          0.13534852	          0.64716378	          0.22913031	          0.05326567	          0.17430036	          0.16455375	          0.14256125	          0.05000105	          0.05000073	          0.29144449	          0.05000259	          0.05000289	          0.05001129	          0.05000217	          0.05000137	          0.05891570	          0.08264087	          0.15738194	          0.08459323	          0.05355783	          0.05004200	          0.05000216	          0.51879624	          0.06941419	          0.06939244	          0.05001011	          0.05000445	          0.05000156	          0.66059809	          0.16599564	          0.05000303	          0.05000472	          0.06664336	          0.24646347	          0.10494890	          0.11703142	          0.12112194	          0.36884291	          0.44677643	          0.19612710	          0.37442543	          0.20042368	          0.25241044	          0.05000020	          0.05891357	          0.08589884	          0.05000191	          0.05000047	          0.05000136	          0.05000034	          0.05000037	          0.05000056	
          1.61484432	         -2.89075049	          0.59228742	         -8.10427923	          2.15066220	          0.83307166	          0.00269365	         29.07896167	         -1.56060238	         -5.82829384	         -9.02677487	         -5.28478482	        -10.33303327	        -13.78895997	        -33.43888540	         14.38987444	          0.51380381	          2.97931322	         11.87486358	          0.30517045	         19.96320768	         -9.47117441	          1.30908906	          1.18541978	        -17.04297314	        -16.06131894	         18.45298905	         15.25798244	        -13.46245140	         18.59328853	         34.34140014	         51.43459417	         86.51662706	         86.51662706	          0.32827527	          0.05000089	          0.21746003	          0.05001750	          0.05000175	          0.33837346	          0.25389601	          0.15601984	          0.18354610	          0.11371438	          0.06941237	          0.06942008	          0.08177100	          0.06941372	          0.12536617	          0.30910143	          0.05937963	          0.05911956	          0.09634330	          0.05000119	          0.05000242	          0.24795053	          0.06941334	          0.06941241	          0.08178599	          0.06939989	          0.08179758	          0.05891323	          0.05891373	          0.05636810	          0.05013008	          0.05891130	          0.05891300	          0.05891164	          0.05891238	          0.05891200	          0.05891043	          0.40855004	          0.10802549	          0.09632715	          0.11487402	          0.70859880	          0.39947448	          0.05764658	          0.18097681	          0.13966082	          0.12099581	          0.05000838	          0.05000359	          0.24736953	          0.05002386	          0.05000736	          0.05000985	          0.05000301	          0.05000189	          0.05000423	          0.07014012	          0.26020126	          0.07179670	          0.05000897	          0.05001495	          0.05001382	          0.46863944	          0.05891485	          0.05889686	          0.05004697	          0.05003222	          0.05001359	          0.58566897	          0.14580147	          0.05480079	          0.05000406	          0.06635844	          0.20917963	          0.10634609	          0.10286622	          0.10280351	          0.31304625	          0.37919062	          0.16645788	          0.31778441	          0.17010571	          0.21422791	          0.05121908	          0.05000304	          0.07294097	          0.05000267	          0.10762040	          0.05001190	          0.07915731	          0.05891197	          0.08178659	
          1.62553866	         -2.89635910	          0.16814486	         -8.19577402	          2.16786380	          0.83145360	          0.00280293	         28.60384414	         -1.87255759	         -5.48059895	         -9.64508807	         -5.28061916	        -10.67737698	        -15.19657682	        -34.17072035	         13.75588765	         -0.49065234	          2.83567123	         12.05346885	          0.28794240	         17.27590828	         -9.41061850	          0.95723916	          1.16094373	        -17.46757776	        -15.78983096	         18.84343957	         15.00771290	        -13.45128122	         18.35431006	         33.00581991	         52.05219582	         86.51662706	         86.51662706	          0.42377094	          0.31602398	          0.25314834	          0.42154147	          0.43433957	          0.28718759	          0.21548845	          0.16791379	          0.15578069	          0.09651253	          0.05891246	          0.05891868	          0.06940118	          0.05891519	          0.11777702	          0.36389393	          0.05040068	          0.05017919	          0.08176934	          0.31092294	          0.24521727	          0.29086154	          0.05891290	          0.05891215	          0.06941493	          0.05891334	          0.06942422	          0.05000150	          0.05000537	          0.05000338	          0.05000290	          0.05000054	          0.05000158	          0.05000019	          0.05000059	          0.05000275	          0.05000208	          0.65471872	          0.20832310	          0.12211301	          0.48327223	          0.76994459	          0.33904564	          0.07663032	          0.15735355	          0.11853360	          0.10269284	          0.05000101	          0.05000039	          0.44812043	          0.05000433	          0.05000138	          0.05001469	          0.05000166	          0.05000064	          0.05000253	          0.05953031	          0.23178055	          0.06093598	          0.05000081	          0.05000251	          0.05000419	          0.43556806	          0.05000373	          0.05000186	          0.05003216	          0.05000428	          0.05000115	          0.61986881	          0.18723596	          0.05000027	          0.05000146	          0.05647867	          0.17753591	          0.09025894	          0.08730545	          0.08725213	          0.26569029	          0.32182898	          0.14127690	          0.26971175	          0.14437415	          0.18182147	          0.08987285	          0.08929480	          0.06644311	          0.05005878	          0.20206135	          0.05007458	          0.14565635	          0.05000010	          0.06941443	
          1.63623299	         -2.90290042	         -0.25089338	         -8.21975384	          2.18487406	          0.83006017	          0.00289807	         28.21974348	         -2.18112009	         -5.17912088	        -10.11049367	         -5.28752099	        -10.98784000	        -16.72095397	        -35.07783477	         13.06144097	         -1.52737908	          2.69506699	         12.17951939	          0.27037014	         14.08264375	         -9.37578728	          0.58144860	          1.13426830	        -17.70929860	        -15.46831569	         19.15365894	         14.78567101	        -13.45062573	         18.19865640	         31.46211500	         52.40627874	         86.51662706	         86.51662706	          0.48805797	          0.41595410	          0.27839710	          0.66230102	          0.58793977	          0.24375124	          0.20126538	          0.19141907	          0.14776525	          0.08191294	          0.05000286	          0.05000616	          0.05890280	          0.05001030	          0.12764990	          0.40261374	          0.05000484	          0.05000926	          0.06940034	          0.39187346	          0.31326784	          0.33226757	          0.05000112	          0.05000064	          0.05891448	          0.05000421	          0.05892309	          0.05000046	          0.09241912	          0.11842162	          0.16049762	          0.05000040	          0.05000101	          0.05000017	          0.05001155	          0.05000539	          0.05000515	          0.78352875	          0.20862181	          0.11900974	          0.57856906	          0.83053862	          0.44322320	          0.09190442	          0.13354988	          0.10060248	          0.08715860	          0.05000343	          0.05000185	          0.38033186	          0.05001532	          0.05000670	          0.05001808	          0.08768023	          0.05001438	          0.05000086	          0.05052574	          0.19699157	          0.05172717	          0.05000986	          0.12757868	          0.10197627	          0.36968279	          0.05000892	          0.05000403	          0.05011923	          0.05005655	          0.05003079	          0.52609854	          0.21024311	          0.05000161	          0.05000551	          0.05002687	          0.15067909	          0.07660510	          0.07409839	          0.07405310	          0.22549855	          0.27314564	          0.11990519	          0.22891138	          0.12253545	          0.15431757	          0.15979667	          0.08618233	          0.06625541	          0.05000493	          0.27644911	          0.05000597	          0.20414944	          0.05003136	          0.05891394	
